<svg width="24" height="24" viewBox="0 0 24 24" fill="none" xmlns="http://www.w3.org/2000/svg">
<path fill-rule="evenodd" clip-rule="evenodd" d="M12.7842 4.17165C12.2708 4.03263 11.7296 4.03263 11.2162 4.17165C10.6816 4.31638 10.1632 4.69556 8.68492 5.84535L6.08492 7.86757C5.13347 8.60758 4.81404 8.86704 4.58824 9.17233C4.37124 9.46571 4.2096 9.79622 4.11124 10.1476C4.00888 10.5133 4.0002 10.9247 4.0002 12.1301V18.7499C4.0002 19.5205 4.01105 19.6841 4.04326 19.7902C4.14021 20.1098 4.39031 20.3599 4.70991 20.4569C4.81608 20.4891 4.97966 20.4999 5.7502 20.4999H6.3752C6.50314 20.4999 6.53092 20.4996 6.54926 20.4987C7.06297 20.4735 7.47375 20.0627 7.49899 19.549C7.49989 19.5307 7.5002 19.5029 7.5002 19.3749V16.4999C7.5002 14.0147 9.51491 11.9999 12.0002 11.9999C14.4855 11.9999 16.5002 14.0147 16.5002 16.4999V19.3749C16.5002 19.5029 16.5005 19.5307 16.5014 19.549C16.5266 20.0627 16.9374 20.4735 17.4511 20.4987C17.4695 20.4996 17.4973 20.4999 17.6252 20.4999H18.2502C19.0207 20.4999 19.1843 20.4891 19.2905 20.4569C19.6101 20.3599 19.8602 20.1098 19.9571 19.7902C19.9893 19.6841 20.0002 19.5205 20.0002 18.7499V12.1301C20.0002 10.9247 19.9915 10.5133 19.8892 10.1476C19.7908 9.79622 19.6291 9.46571 19.4122 9.17233C19.1864 8.86704 18.8669 8.60758 17.9155 7.86757L15.3155 5.84535C13.8372 4.69556 13.3188 4.31638 12.7842 4.17165ZM10.6935 2.24116C11.5492 2.00946 12.4512 2.00946 13.3069 2.24116C14.2802 2.50468 15.1342 3.16957 16.3732 4.1342C16.4291 4.17774 16.4858 4.22189 16.5434 4.26664L19.1434 6.28887C19.1793 6.31682 19.2148 6.34438 19.2498 6.37158C20.0541 6.99674 20.6105 7.42921 21.0201 7.98303C21.3818 8.472 21.6512 9.02285 21.8151 9.60852C22.0008 10.2719 22.0006 10.9766 22.0002 11.9953C22.0002 12.0396 22.0002 12.0845 22.0002 12.1301V18.7499C22.0002 18.7923 22.0002 18.8342 22.0003 18.8758C22.001 19.447 22.0016 19.9404 21.871 20.3708C21.5802 21.3296 20.8299 22.0799 19.871 22.3708C19.4407 22.5013 18.9473 22.5007 18.376 22.5C18.3345 22.5 18.2926 22.4999 18.2502 22.4999L17.6042 22.4999C17.5091 22.5 17.4273 22.5 17.353 22.4963C15.8119 22.4206 14.5795 21.1883 14.5038 19.6471C14.5002 19.5728 14.5002 19.491 14.5002 19.3959L14.5002 16.4999C14.5002 15.1192 13.3809 13.9999 12.0002 13.9999C10.6195 13.9999 9.5002 15.1192 9.5002 16.4999L9.5002 19.3959C9.50022 19.4911 9.50023 19.5728 9.49658 19.6471C9.42087 21.1883 8.18851 22.4206 6.6474 22.4963C6.57306 22.5 6.4913 22.5 6.39614 22.4999L5.7502 22.4999C5.70784 22.4999 5.6659 22.5 5.62437 22.5C5.0531 22.5007 4.55969 22.5013 4.12934 22.3708C3.17054 22.0799 2.42022 21.3296 2.12937 20.3708C1.99883 19.9404 1.99942 19.447 2.0001 18.8758C2.00015 18.8342 2.0002 18.7923 2.0002 18.7499V12.1301C2.0002 12.0845 2.00018 12.0396 2.00017 11.9953C1.99982 10.9766 1.99959 10.2719 2.18526 9.60852C2.3492 9.02285 2.61861 8.472 2.98026 7.98303C3.38988 7.42921 3.94631 6.99673 4.75065 6.37157C4.78564 6.34438 4.8211 6.31682 4.85703 6.28887L7.45704 4.26664C7.51458 4.22189 7.57128 4.17774 7.62721 4.1342C8.86619 3.16957 9.72017 2.50468 10.6935 2.24116Z" fill="#1E212C"/>
</svg>
